<svg width="32" height="32" viewBox="0 0 32 32" fill="none" xmlns="http://www.w3.org/2000/svg">
  <defs>
    <linearGradient id="bgGrad" x1="0%" y1="0%" x2="100%" y2="100%">
      <stop offset="0%" style="stop-color:#21262D"/>
      <stop offset="100%" style="stop-color:#0D1117"/>
    </linearGradient>
  </defs>
  
  <!-- Background -->
  <circle cx="16" cy="16" r="15" fill="url(#bgGrad)" stroke="#30363D"/>
  
  <!-- Simplified GitHub icon -->
  <path d="M16 6c-5.5 0-10 4.5-10 10 0 4.4 2.9 8.2 6.9 9.5.5.1.7-.2.7-.5v-1.7c-2.8.6-3.4-1.3-3.4-1.3-.5-1.2-1.1-1.5-1.1-1.5-.9-.6.1-.6.1-.6 1 .1 1.6 1.1 1.6 1.1.9 1.6 2.4 1.1 3 .9.1-.7.4-1.1.7-1.4-2.3-.3-4.7-1.1-4.7-5.1 0-1.1.4-2.1 1.1-2.8-.1-.3-.5-1.3.1-2.8 0 0 .9-.3 2.9 1.1.8-.2 1.7-.3 2.6-.3s1.8.1 2.6.3c2-1.4 2.9-1.1 2.9-1.1.6 1.5.2 2.5.1 2.8.7.7 1.1 1.7 1.1 2.8 0 4-2.4 4.8-4.7 5.1.4.3.7.9.7 1.9v2.8c0 .3.2.6.7.5C23.1 24.2 26 20.4 26 16c0-5.5-4.5-10-10-10z" fill="#58A6FF"/>
  
  <!-- 100 indicator -->
  <circle cx="24" cy="8" r="4" fill="#FF6B6B"/>
  <text x="24" y="10" text-anchor="middle" font-family="system-ui" font-size="6" font-weight="700" fill="white">100</text>
</svg> 