<svg width="120" height="120" viewBox="0 0 120 120" fill="none" xmlns="http://www.w3.org/2000/svg">
  <defs>
    <linearGradient id="bgGradient" x1="0%" y1="0%" x2="100%" y2="100%">
      <stop offset="0%" style="stop-color:#21262D"/>
      <stop offset="100%" style="stop-color:#0D1117"/>
    </linearGradient>
    <linearGradient id="githubGradient" x1="0%" y1="0%" x2="100%" y2="100%">
      <stop offset="0%" style="stop-color:#58A6FF"/>
      <stop offset="100%" style="stop-color:#1F6FEB"/>
    </linearGradient>
  </defs>
  
  <!-- Background circle -->
  <circle cx="60" cy="60" r="58" fill="url(#bgGradient)" stroke="#30363D" stroke-width="2"/>
  
  <!-- GitHub Octocat silhouette -->
  <path d="M60 20C41.2 20 26 35.2 26 54c0 15 9.7 27.7 23.2 32.2 1.7.3 2.3-.7 2.3-1.7v-5.8c-9.4 2-11.4-4.5-11.4-4.5-1.5-4-3.8-5.1-3.8-5.1-3.1-2.1.2-2.1.2-2.1 3.4.2 5.3 3.6 5.3 3.6 3.1 5.3 8.1 3.8 10.1 2.9.3-2.3 1.2-3.8 2.2-4.6-7.7-.9-15.8-3.8-15.8-17 0-3.8 1.4-6.9 3.6-9.3-.4-.9-1.6-4.4.3-9.3 0 0 2.9-.9 9.6 3.5 2.8-.8 5.8-1.2 8.8-1.2s6 .4 8.8 1.2c6.7-4.4 9.6-3.5 9.6-3.5 1.9 4.9.7 8.4.3 9.3 2.2 2.4 3.6 5.5 3.6 9.3 0 13.3-8.1 16.1-15.8 17 1.2 1 2.3 3.1 2.3 6.2v9.2c0 .9.6 2 2.3 1.7C84.3 81.7 94 69 94 54c0-18.8-15.2-34-34-34z" fill="url(#githubGradient)"/>
  
  <!-- 100 text -->
  <text x="60" y="48" text-anchor="middle" font-family="system-ui, -apple-system, sans-serif" font-size="16" font-weight="700" fill="#F0F6FC">100</text>
  
  <!-- DAYS text -->
  <text x="60" y="102" text-anchor="middle" font-family="system-ui, -apple-system, sans-serif" font-size="10" font-weight="600" fill="#7D8590" letter-spacing="1px">DAYS</text>
  
  <!-- Streak dots -->
  <circle cx="20" cy="60" r="2.5" fill="#39D353" opacity="0.7"/>
  <circle cx="30" cy="60" r="2.5" fill="#39D353" opacity="0.8"/>
  <circle cx="40" cy="60" r="2.5" fill="#39D353" opacity="0.9"/>
  <circle cx="80" cy="60" r="2.5" fill="#39D353" opacity="0.9"/>
  <circle cx="90" cy="60" r="2.5" fill="#39D353" opacity="0.8"/>
  <circle cx="100" cy="60" r="2.5" fill="#39D353" opacity="0.7"/>
</svg> 